# xmcd
#
# Track frame offsets: 
#        150
#        17327
#        28207
#        53370
#        64912
#        80965
#        120187
#        129354
#        139277
#        162387
#
# Disc length: 2262 seconds
#
# Revision: 1
# Processed by: cddbd v1.5.2PL0 Copyright (c) Steve Scherf et al.
# Submitted via: ExactAudioCopy v0.95b4
#
DISCID=7f08d40a
DTITLE=Supermusic - Blues - Supermusic - Blues
DYEAR=1996
DGENRE=Blues
TTITLE0=Blues before Sunrise
TTITLE1=Guitar Blues
TTITLE2=No Rolling Blues
TTITLE3=Dissatisfied
TTITLE4=My First Wife Left Me
TTITLE5=All The Blues All The Time
TTITLE6=How Long Blues
TTITLE7=Me and My Mule
TTITLE8=Rocking the Blues
TTITLE9=Jammin the Blues
EXTD=YEAR: 1996
EXTT0=
EXTT1=
EXTT2=
EXTT3=
EXTT4=
EXTT5=
EXTT6=
EXTT7=
EXTT8=
EXTT9=
PLAYORDER=
